<svg xmlns="http://www.w3.org/2000/svg" viewBox="0 0 1771.46 1326.6"><defs><style>.cls-1,.cls-9{fill:none;stroke-linecap:round;stroke-miterlimit:10;}.cls-1{stroke:#d5f3ff;stroke-width:18px;stroke-dasharray:80;}.cls-2{fill:#00d38b;}.cls-3{fill:#fff;}.cls-4{fill:#06adef;}.cls-5{fill:#2d2d2d;}.cls-6{fill:#2d3547;}.cls-7{fill:#1c2748;}.cls-8{fill:#ef3558;}.cls-9{stroke:#00d38b;stroke-width:84.64px;}.cls-10{fill:#ffa633;}.cls-11{fill:#ffd837;}</style></defs><title>planes</title><g id="Layer_2" data-name="Layer 2"><g id="object"><g id="shadow"><path class="cls-1" d="M1590.41,291.42a493.37,493.37,0,0,1-147.83,199.94c-53.65,43.21-128.71,65.91-180.12,3.39-26.14-31.77-29.38-82-3.48-113.95,67.53-83.35,166.52,4.44,204.24,70.47,53.13,93,37,238.23-28,322.24-92.5,119.5-264,121-400.84,118.62-187.18-3.25-372.52-33.87-557.1-62.47-126.31-19.58-290.41-50.58-376.15,70.43C59.39,959,62.52,1051.25,120,1094.9"/><path class="cls-2" d="M689,1123h0c-178.26,0-324.11-147.39-324.11-327.54V616.89c0-180.15,145.85-327.54,324.11-327.54h0c178.27,0,324.12,147.39,324.12,327.54V795.44C1013.16,975.59,867.31,1123,689,1123Z"/><ellipse class="cls-3" cx="689.04" cy="626" rx="200.32" ry="202.44"/><ellipse class="cls-4" cx="689.04" cy="626" rx="118.7" ry="119.95"/><ellipse class="cls-5" cx="689.04" cy="626" rx="72.88" ry="73.65"/><ellipse class="cls-3" cx="736.9" cy="575.67" rx="30.14" ry="30.46"/><path class="cls-6" d="M468.78,397.65l-8.19-114L562,336.21s-8.57,17.64-40,39.47C494.91,394.55,468.78,397.65,468.78,397.65Z"/><path class="cls-6" d="M906,397.65l8.19-114L812.84,336.21s8.57,17.64,39.95,39.47C879.9,394.55,906,397.65,906,397.65Z"/><path class="cls-7" d="M785.54,967c34.73-10.84,54-48.08,43-83.17L702.82,923.11C713.78,958.2,750.82,977.86,785.54,967Z"/><path class="cls-8" d="M744.1,966.1a65,65,0,0,0,75-23.42,43.41,43.41,0,0,0-75,23.42Z"/><line class="cls-9" x1="582.09" y1="1047.05" x2="584.04" y2="1284.28"/><line class="cls-9" x1="789.15" y1="1047.19" x2="800.9" y2="1284.14"/><path class="cls-9" d="M210.38,493.86S206.16,659,371.68,739.39"/><path class="cls-9" d="M1164.6,545.21s-20.2,203.85-213.82,208.94"/></g><polygon class="cls-10" points="0 289.35 253.11 407.47 264.36 514.34 0 289.35"/><polygon class="cls-11" points="0 289.35 384.35 394.35 253.11 407.47 0 289.35"/><polygon class="cls-11" points="0 289.35 249.36 480.59 149.99 570.59 0 289.35"/><polygon class="cls-10" points="1771.46 0 1574.88 189.53 1598.39 291.92 1771.46 0"/><polygon class="cls-11" points="1771.46 0 1449.36 219.03 1574.88 189.53 1771.46 0"/><polygon class="cls-11" points="1771.46 0 1601.55 255.96 1721.99 307.65 1771.46 0"/></g></g></svg>