<svg xmlns="http://www.w3.org/2000/svg" viewBox="0 0 944.52 445.46"><defs><style>.cls-1{fill:#def4ff;}.cls-2{fill:#77d18d;}.cls-3{fill:#fff;}.cls-4{fill:#61aaeb;}.cls-5{fill:#313131;}.cls-6{fill:#333848;}.cls-7{fill:#252b49;}.cls-8{fill:#cd3857;}.cls-9{fill:none;stroke:#77d18d;stroke-linecap:round;stroke-miterlimit:10;stroke-width:30px;}</style></defs><title>hi</title><g id="Layer_2" data-name="Layer 2"><g id="Outline"><path class="cls-1" d="M938.37,419.41H280c-4.32,0-6-2.24-6-5s1.66-5,6-5H938.37c4.32,0,6.15,2.24,6.15,5S942.69,419.41,938.37,419.41Z"/><path class="cls-1" d="M693.29,344.21h-5.76a12.7,12.7,0,0,1-12.68-12.68v-5.76a12.7,12.7,0,0,1,12.68-12.68h5.76A12.7,12.7,0,0,1,706,325.77v5.76A12.7,12.7,0,0,1,693.29,344.21Zm-5.76-21.12a2.68,2.68,0,0,0-2.68,2.68v5.76a2.68,2.68,0,0,0,2.68,2.68h5.76a2.68,2.68,0,0,0,2.68-2.68v-5.76a2.68,2.68,0,0,0-2.68-2.68Z"/><path class="cls-1" d="M738,344.21H732.2a12.7,12.7,0,0,1-12.68-12.68v-5.76a12.7,12.7,0,0,1,12.68-12.68H738a12.7,12.7,0,0,1,12.68,12.68v5.76A12.7,12.7,0,0,1,738,344.21Zm-5.76-21.12a2.68,2.68,0,0,0-2.68,2.68v5.76a2.68,2.68,0,0,0,2.68,2.68H738a2.68,2.68,0,0,0,2.68-2.68v-5.76a2.68,2.68,0,0,0-2.68-2.68Z"/><path class="cls-1" d="M693.29,383.74h-5.76a12.69,12.69,0,0,1-12.68-12.68V365.3a12.7,12.7,0,0,1,12.68-12.68h5.76A12.7,12.7,0,0,1,706,365.3v5.76A12.69,12.69,0,0,1,693.29,383.74Zm-5.76-21.12a2.68,2.68,0,0,0-2.68,2.68v5.76a2.68,2.68,0,0,0,2.68,2.68h5.76a2.68,2.68,0,0,0,2.68-2.68V365.3a2.68,2.68,0,0,0-2.68-2.68Z"/><path class="cls-1" d="M738,383.74H732.2a12.69,12.69,0,0,1-12.68-12.68V365.3a12.7,12.7,0,0,1,12.68-12.68H738a12.7,12.7,0,0,1,12.68,12.68v5.76A12.69,12.69,0,0,1,738,383.74Zm-5.76-21.12a2.68,2.68,0,0,0-2.68,2.68v5.76a2.68,2.68,0,0,0,2.68,2.68H738a2.68,2.68,0,0,0,2.68-2.68V365.3a2.68,2.68,0,0,0-2.68-2.68Z"/><path class="cls-1" d="M586.72,419.07H534.67a5,5,0,0,1-5-5V371.84A29.85,29.85,0,0,1,559.49,342h2.4a29.85,29.85,0,0,1,29.83,29.82v42.23A5,5,0,0,1,586.72,419.07Zm-47.05-10h42.05V371.84A19.84,19.84,0,0,0,561.89,352h-2.4a19.84,19.84,0,0,0-19.82,19.82Z"/><path class="cls-1" d="M693.29,271.87h-5.76a12.7,12.7,0,0,0-12.68,12.68v5.77A12.7,12.7,0,0,0,687.53,303h5.76A12.7,12.7,0,0,0,706,290.32v-5.77A12.7,12.7,0,0,0,693.29,271.87ZM696,290.32a2.69,2.69,0,0,1-2.68,2.68h-5.76a2.69,2.69,0,0,1-2.68-2.68v-5.77a2.68,2.68,0,0,1,2.68-2.68h5.76a2.68,2.68,0,0,1,2.68,2.68Z"/><path class="cls-1" d="M738,271.87H732.2a12.7,12.7,0,0,0-12.68,12.68v5.77A12.7,12.7,0,0,0,732.2,303H738a12.7,12.7,0,0,0,12.68-12.68v-5.77A12.7,12.7,0,0,0,738,271.87Zm2.68,18.45A2.69,2.69,0,0,1,738,293H732.2a2.69,2.69,0,0,1-2.68-2.68v-5.77a2.68,2.68,0,0,1,2.68-2.68H738a2.68,2.68,0,0,1,2.68,2.68Z"/><path class="cls-1" d="M767.75,244.5l-60.31-45.78a27.15,27.15,0,0,0-32.72,0l-8.59,6.53v-16.8a27.63,27.63,0,0,0-10.92-21.94l-77.93-58.9c-8.84-6.68-21.55-7-31-1.51-5.47,3.18-10.52,7.82-15.58,11.64l-39.81,30.11-24.62,18.63-.05,0a27.62,27.62,0,0,0-10.92,21.93v225.6a5,5,0,0,0,5,5H773.5a5,5,0,0,0,5-5V266.19A27.38,27.38,0,0,0,767.75,244.5ZM656.13,409.09H465.26V188.45a17.63,17.63,0,0,1,6.95-14l77.93-58.91a17.59,17.59,0,0,1,21.11,0l77.94,58.91a17.59,17.59,0,0,1,6.94,14Zm10,0V217.8l14.66-11.12a17.13,17.13,0,0,1,20.62,0l60.29,45.79a17.3,17.3,0,0,1,6.8,13.72v142.9Z"/><path class="cls-1" d="M935.59,281.59l-1.83-5.48c-9.43-24.61-20.12-52.51-20.86-79.65-.67-23.52-14.71-42.44-34.2-47.31a62.07,62.07,0,0,0-12-1.44h0A58.86,58.86,0,0,0,855.93,149c-19.67,4.68-34.22,23.57-34.9,47.5-.76,27.14-11.44,55-20.95,79.85l-1.75,5.27v.07c-8.34,26.18-6.28,50.61,5.77,68.75a62.43,62.43,0,0,0,48.4,27.49c3,.23,10.5.66,11.91.69v35.82a5,5,0,0,0,10,0V378.36c1.22-.08,5.41-.32,7.2-.46a62.31,62.31,0,0,0,48.19-27.49C941.85,332.27,943.91,307.84,935.59,281.59ZM921.48,344.9a52.55,52.55,0,0,1-40.58,23c-1.62.13-5.26.33-6.49.4v-50a29.33,29.33,0,0,0,22.85-29.27v-4.48a5,5,0,1,0-10,0v4.47a19.56,19.56,0,0,1-12.85,18.89V247.4a5,5,0,1,0-10,0V269a18,18,0,0,1-8-15v-3.53a5,5,0,0,0-10,0V254a26.77,26.77,0,0,0,18,25.77V336.1a25.32,25.32,0,0,1-17.74-23.6v-4.8a5,5,0,1,0-10,0v4.8a34.86,34.86,0,0,0,27.74,33.78V368.6c-1.42,0-8.4-.44-11.2-.66a52.67,52.67,0,0,1-40.8-23c-10.33-15.58-12-37-4.6-60.2l1.66-5c9.72-25.36,20.73-54.1,21.52-82.94.46-16.27,9.54-33.6,26-37.78a52.59,52.59,0,0,1,9.67-1.26,59.29,59.29,0,0,1,11.41,1.6c15.67,4.83,24.35,21.6,24.8,37.46.8,28.84,11.8,57.6,21.44,82.73l1.74,5.2c7.39,23.24,5.76,44.63-4.58,60.21Z"/><path class="cls-1" d="M505.48,220.35h-1.26a18.08,18.08,0,0,0-18.06,18.06v17.83a8.47,8.47,0,0,0,8.47,8.46h20.45a8.48,8.48,0,0,0,8.46-8.46V238.41A18.08,18.08,0,0,0,505.48,220.35Zm8.06,34.35H496.16V238.41a8.07,8.07,0,0,1,8.06-8.06h1.26a8.07,8.07,0,0,1,8.06,8.06Z"/><path class="cls-1" d="M561.39,220.35h-1.27a18.06,18.06,0,0,0-18,18.06v17.83a8.46,8.46,0,0,0,8.46,8.46H571a8.46,8.46,0,0,0,8.46-8.46V238.41A18.06,18.06,0,0,0,561.39,220.35Zm8.05,34.35H552.07V238.41a8.06,8.06,0,0,1,8-8.06h1.27a8.07,8.07,0,0,1,8.05,8.06Z"/><path class="cls-1" d="M617.29,220.35H616a18.07,18.07,0,0,0-18,18.06v17.83a8.46,8.46,0,0,0,8.46,8.46H626.9a8.46,8.46,0,0,0,8.46-8.46V238.41A18.07,18.07,0,0,0,617.29,220.35Zm8.06,34.35H608V238.41a8.06,8.06,0,0,1,8-8.06h1.27a8.08,8.08,0,0,1,8,8.06Z"/><path class="cls-1" d="M505.42,282.43h-1.26a18.08,18.08,0,0,0-18.06,18.06v17.83a8.47,8.47,0,0,0,8.47,8.46H515a8.48,8.48,0,0,0,8.46-8.46V300.49A18.08,18.08,0,0,0,505.42,282.43Zm8.06,34.35H496.1V300.49a8.07,8.07,0,0,1,8.06-8.06h1.26a8.07,8.07,0,0,1,8.06,8.06Z"/><path class="cls-1" d="M561.33,282.43h-1.27a18.07,18.07,0,0,0-18,18.06v17.83a8.46,8.46,0,0,0,8.46,8.46h20.45a8.46,8.46,0,0,0,8.46-8.46V300.49A18.07,18.07,0,0,0,561.33,282.43Zm8,34.35H552V300.49a8.06,8.06,0,0,1,8-8.06h1.27a8.07,8.07,0,0,1,8,8.06Z"/><path class="cls-1" d="M617.23,282.43H616a18.08,18.08,0,0,0-18.06,18.06v17.83a8.48,8.48,0,0,0,8.46,8.46h20.45a8.47,8.47,0,0,0,8.47-8.46V300.49A18.08,18.08,0,0,0,617.23,282.43Zm8.06,34.35H607.91V300.49a8.08,8.08,0,0,1,8.08-8.06h1.26a8.07,8.07,0,0,1,8.06,8.06Z"/><path class="cls-1" d="M515,388.86H494.51A8.47,8.47,0,0,1,486,380.4V362.58a18.08,18.08,0,0,1,18.06-18.06h1.26a18.08,18.08,0,0,1,18.06,18.06v17.83A8.47,8.47,0,0,1,515,388.86Zm-18.91-10h17.38V362.58a8.07,8.07,0,0,0-8.06-8.06H504.1a8.07,8.07,0,0,0-8.06,8.06Z"/><path class="cls-1" d="M626.76,388.86H606.31a8.47,8.47,0,0,1-8.46-8.46V362.58a18.08,18.08,0,0,1,18.06-18.06h1.28a18.07,18.07,0,0,1,18,18.06v17.83A8.46,8.46,0,0,1,626.76,388.86Zm-18.91-10h17.38V362.58a8.07,8.07,0,0,0-8.06-8.06h-1.26a8.07,8.07,0,0,0-8.06,8.06Z"/><path class="cls-2" d="M229.08,360.27h0c-73,2.84-135.23-57.43-138.21-133.94l-3-75.82C85,74,142.27,9.08,215.31,6.24h0C288.36,3.4,350.55,63.67,353.53,140.18L356.47,216C359.45,292.51,302.12,357.43,229.08,360.27Z"/><circle class="cls-3" cx="222.61" cy="149.14" r="86.04"/><circle class="cls-4" cx="222.61" cy="149.14" r="50.98"/><circle class="cls-5" cx="222.61" cy="149.14" r="31.3"/><circle class="cls-3" cx="242.32" cy="126.97" r="12.95"/><path class="cls-6" d="M124.31,55.84l-5.4-48.27,44.38,20.62s-3.39,7.64-16.49,17.43A56.24,56.24,0,0,1,124.31,55.84Z"/><path class="cls-6" d="M312,48.55,313.6,0,271,24s4,7.34,17.8,16.09A56.37,56.37,0,0,0,312,48.55Z"/><path class="cls-7" d="M228.45,299.23a47.21,47.21,0,0,0,45.33-49l-94.33,3.67A47.21,47.21,0,0,0,228.45,299.23Z"/><path class="cls-8" d="M200,291a46.92,46.92,0,0,0,56.26-2.19A31.25,31.25,0,0,0,200,291Z"/><line class="cls-9" x1="183.66" y1="329.74" x2="188.42" y2="430.46"/><line class="cls-9" x1="272.53" y1="326.34" x2="281.49" y2="426.78"/><path class="cls-9" d="M15,101s.91,70.19,73.28,101.58"/><path class="cls-9" d="M395.77,303S412,218.36,333.51,191.62"/></g></g></svg>